<svg fill="none" viewBox="0 0 150 150" xmlns="http://www.w3.org/2000/svg" xmlns:xlink="http://www.w3.org/1999/xlink"><linearGradient id="a" gradientUnits="userSpaceOnUse" x1="153.746" x2="94.048" y1="64.083" y2="140.306"><stop offset=".18" stop-color="#0052cc"/><stop offset="1" stop-color="#2684ff"/></linearGradient><path d="m4.86798.00044681c-.70145-.01008704-1.39639.15072719-2.03601.47114919-.63961.320422-1.20839.792684-1.66639 1.383614-.458005.59093-.794121 1.2862-.984747 2.03699-.19062609.75078-.2311392 1.53888-.1186943 2.30893l20.4016613 137.73187c.2542 1.686 1.0342 3.218 2.2032 4.327 1.169 1.11 2.6521 1.725 4.1888 1.74h97.8752c1.151.016 2.27-.428 3.152-1.252.882-.825 1.469-1.973 1.653-3.238l20.402-139.28215c.112-.77001.072-1.55802-.119-2.30869s-.527-1.44581-.985-2.0366-1.027-1.062917-1.667-1.383221c-.639-.320304-1.334-.4810236-2.035-.4708731zm85.90752 99.54455319h-31.2391l-8.4586-49.1441h47.2674z" fill="#2684ff"/><path d="m143.326 50.3318h-45.0676l-7.5639 49.105h-31.2139l-36.8566 48.6512c1.1682 1.123 2.6576 1.747 4.2018 1.762h97.8212c1.151.016 2.269-.428 3.15-1.251.882-.823 1.468-1.971 1.652-3.235z" fill="url(#a)"/></svg>