<svg viewBox="213.87 1.77 75.8 76.28" xmlns="http://www.w3.org/2000/svg"><g transform="matrix(1.018827 0 0 -1.018827 -29.95238 104.07061)"><path d="m239.3298 95.036c0 2.96 2.4604 5.361 5.4956 5.361h63.376c3.0351 0 5.4956-2.401 5.4956-5.361v-64.117c0-2.961-2.4605-5.361-5.4956-5.361h-63.376c-3.0352 0-5.4956 2.4-5.4956 5.361z" fill="#069"/><g fill="#fff" fill-rule="evenodd"><path d="m261.8728 37.749v33.794h-11.2325v-33.794zm-5.6163 38.408c3.917 0 6.355 2.595 6.355 5.838-.073 3.316-2.438 5.839-6.2807 5.839-3.8423 0-6.3545-2.523-6.3545-5.839 0-3.243 2.4375-5.838 6.207-5.838h.073z"/><path d="m268.0881 37.749h11.2324v18.872c0 1.01.073 2.019.3696 2.741.812 2.018 2.6602 4.108 5.7632 4.108 4.0645 0 5.6904-3.099 5.6904-7.642v-18.079h11.2315v19.377c0 10.38-5.5415 15.21-12.9316 15.21-6.0596 0-8.7198-3.387-10.1978-5.694h.075v4.901h-11.2324c.1474-3.171 0-33.794 0-33.794z"/></g></g></svg>