<svg enable-background="new 0 0 265 108" viewBox="0 0 265 108" xmlns="http://www.w3.org/2000/svg"><g fill="#f93"><path d="m263.9 56.2c0 3.1-2.5 5.6-5.6 5.6s-5.6-2.5-5.6-5.6 2.5-5.6 5.6-5.6 5.6 2.5 5.6 5.6"/><path d="m81.4 87.6.7 7.5h11.8l-4-43.4h-17.6l-22.3 43.3h12l3.7-7.5h15.7zm-.5-8.5h-10.8l9.3-18.8h.1z"/><path d="m110.3 76h1.8l8.4-11.4h11l-11.7 14.6 7.2 15.8h-11.7l-4.6-12.3h-1.8l-2.6 12.3h-10l9.3-43.4h9.9z"/><path d="m147 95h10l4-19c2.2-10.5-1.8-11.8-12-11.8-7.1 0-14-.1-16 9.4h10c.6-2.7 2.3-3.3 4.7-3.3 4.3 0 4.1 1.8 3.5 4.6l-1 4.8h-.5c-.4-3.5-4.7-3.4-7.6-3.4-7.2 0-11.5 2.3-13 9.6-1.6 7.7 2 9.4 9 9.4 3.5 0 8.1-.7 9.8-4.9h.3zm-2.8-12.5c3.2 0 5.4.2 4.8 2.8-.7 3.2-2.1 3.7-6.2 3.7-1.5 0-4.3 0-3.6-3.3.6-2.8 2.6-3.2 5-3.2"/><path d="m177 64.6-.9 4.3h.4c2-3.6 5.9-4.6 9.3-4.6 4.3 0 8.5.7 7.9 6h.5c1.5-4.3 5.9-6 9.7-6 7 0 10 2.9 8.5 10l-4.4 20.7h-9.9l3.7-17.6c.5-3.2 1.1-5.5-2.8-5.5s-5.2 2.6-5.9 5.8l-3.6 17.3h-10l3.9-18.4c.5-2.8.7-4.7-2.8-4.7-4.1 0-5.3 2.2-6.1 5.8l-3.6 17.3h-10l6.5-30.4z"/><path d="m230.9 95h10l4-19c2.2-10.5-1.8-11.8-12-11.8-7.1 0-14-.1-16 9.4h10c.6-2.7 2.3-3.3 4.7-3.3 4.4 0 4.1 1.8 3.6 4.6l-1 4.8h-.5c-.4-3.5-4.7-3.4-7.6-3.4-7.2 0-11.5 2.3-13 9.6-1.6 7.7 2 9.4 9 9.4 3.5 0 8.1-.7 9.8-4.9h.3zm-2.8-12.5c3.2 0 5.4.2 4.8 2.8-.7 3.2-2.1 3.7-6.2 3.7-1.5 0-4.3 0-3.6-3.3.6-2.8 2.6-3.2 5-3.2"/><path d="m255.2 95h-9.9l6.4-30.4h10z"/></g><path d="m55.1 105.5c2.5.8 2.4 2.4-.4 2.4-29.8 0-54.1-24-54.1-53.6s24.2-53.6 54.1-53.6c2.8 0 3.4 1.5 1.1 2.2-22.4 6.4-38.8 27-38.8 51.4 0 24.1 16 44.5 38.1 51.2m-27.9-38.7c-.1-1.4-.2-2.9-.2-4.4 0-23.5 19.1-42.6 42.6-42.6 22.2 0 28.9 9.9 29.7 9.3.9-.7-8.1-20.4-34.2-20.4-23.5 0-42.6 19.1-42.6 42.6 0 5.4 1 10.6 2.9 15.4.8 2 2 2.1 1.8.1m17.9-30.7c11.1-4.8 25-5 38.6-.2 9.2 3.2 14.5 7.8 14.9 7.6.7-.3-5.3-9.9-16.3-14.1-13.3-5-27.5-2.4-37.9 5.8-1.1.9-.7 1.5.7.9" fill="#009cde"/></svg>