<svg viewBox="0 0 80 80" xmlns="http://www.w3.org/2000/svg" xmlns:xlink="http://www.w3.org/1999/xlink"><linearGradient id="a" x1="0%" x2="100%" y1="100%" y2="0%"><stop offset="0" stop-color="#bd0816"/><stop offset="1" stop-color="#ff5252"/></linearGradient><g fill="none" fill-rule="evenodd"><path d="m0 0h80v80h-80z" fill="url(#a)"/><path d="m16.9635609 35.8079225h12.9052583v-1.9825384h-12.9052583zm44.4119574 14.422967 1.403695 1.4016546-7.3718806 7.3611652c-.1945716.1932974-.4487059.2904418-.7018475.2904418-.2541343 0-.5082686-.0971444-.7018475-.2904418l-3.7087727-3.7023905 1.403695-1.4016547 3.0069252 3.0015632zm4.5684615 5.4628846c-.2263384 1.8635861-.9847705 3.5973159-2.1968721 5.0148309-.8606815 1.0071295-1.9477013 1.8397956-3.1429267 2.4068016-1.6032302.7603035-3.3841559 1.0487628-5.1581325.8326661-1.7253338-.210149-3.3513963-.8901597-4.7064485-1.9656868-2.6028913-2.0667963-3.9172422-5.2715696-3.5171792-8.5734874.3782233-3.1205154 2.26934-5.8425407 5.0578685-7.2818635 1.3361906-.6889321 2.7994484-1.0428152 4.2895094-1.0428152.3821941 0 .7673665.0237904 1.1515461.0703801 3.1131454.3796561 5.8282132 2.2819017 7.2597041 5.0881848.8586961 1.6831751 1.1912547 3.5685691.9629309 5.4509894zm.8060822-6.3500706c-1.7322827-3.3960883-5.01816-5.6978154-8.7884809-6.156773-2.2802598-.2785467-4.5585343.1298563-6.5926015 1.1786191-3.373236 1.7406687-5.6604449 5.0326737-6.1180852 8.8054443-.4824581 3.9898586 1.1068741 7.8647299 4.2537717 10.3637196 1.6409532 1.3025277 3.6124796 2.1262724 5.7001533 2.3810286.4626039.0565024.9252078.0842579 1.3868189.0842579 1.679669 0 3.3384911-.3707347 4.8642897-1.0943612 1.4463816-.6859583 2.7617253-1.6930878 3.8010949-2.9103664 1.4662359-1.7148957 2.3854874-3.8114301 2.6584832-6.0635937.275974-2.2749629-.1270671-4.5528995-1.1654441-6.5879752zm-39.8593793-7.5881657h3.9708487v-1.9825384h-3.9708487zm-9.9271218 0h7.9416974v-1.9825384h-7.9416974zm-.8577033-25.7729994h44.4020303c1.1694149 0 2.1204332 1.1568112 2.1204332 2.5782912v7.3344009h-2.9781366v-4.9563461c0-.5471806-.4437423-.9912692-.9927121-.9912692h-22.8323801c-.5489699 0-.9927122.4440886-.9927122.9912692v4.9563461h-20.8469557v-7.3344009c0-1.3976896.9718652-2.5782912 2.1204332-2.5782912zm31.1503154 9.625224c2.3050777 0 4.180311 1.8536734 4.180311 4.1316101 0 1.5017728-.8289147 2.8836021-2.1631198 3.6072286-1.2667008.6869496-2.7934921.6780281-4.0433168.0009913-1.3292416-.7256091-2.1541854-2.1074384-2.1541854-3.6082199 0-2.2779367 1.8742406-4.1316101 4.180311-4.1316101zm-33.2707486 21.5006291v-19.2306226h20.8469557v16.8515765c0 .5481719.4437423.9912692.9927122.9912692h10.3778131v-1.9825384h-8.2911321c.0863659-3.9670594 2.7240022-7.393877 6.522119-8.4882382 1.7551151.8197796 3.8507305.8277098 5.6326489-.0009913 2.1621271.6244996 4.0542365 2.0687788 5.2266296 4.0047276l1.6985305-1.0269549c-1.2031671-1.9835297-3.0287648-3.5318922-5.1462199-4.4319646.9927122-1.1003088 1.5764269-2.5317016 1.5764269-4.0552823 0-3.3713066-2.7666888-6.1141485-6.1657353-6.1141485-3.4000392 0-6.1657353 2.7428419-6.1657353 6.1141485 0 1.5176331.5777585 2.9440695 1.5635216 4.0443783-2.6535196 1.1161691-4.7263026 3.2087384-5.8361548 5.7890122v-17.6426094h20.8469557v15.8603073h1.9854243v-9.912692h2.9781366l.0009927 14.8690381h1.9854244l-.0009928-24.1859774c0-2.51485-1.8414811-4.5608296-4.1058575-4.5608296h-44.4020303c-2.2643765 0-4.1058576 2.0459796-4.1058576 4.5608296v28.5475619c0 2.51485 1.8414811 4.5598383 4.1058576 4.5598383h26.6682199v-1.9825384h-26.6682199c-1.148568 0-2.1204332-1.1796103-2.1204332-2.5772999z" fill="#fff"/></g></svg>