<svg xmlns="http://www.w3.org/2000/svg" viewBox="21.27 259.77 108.68 122.47"><path d="m58.5 345.1c-6.5-6.1-10.4-14.5-10.4-24.1s3.8-18 10-24.1c5.4-5.4 5.4-13.8 0-19.2s-13.8-5.4-19.2 0c-10.7 11.1-17.6 26.4-17.6 43.3s6.9 32.2 18 43.3c5.4 5.4 13.8 5.4 19.2 0 4.9-5.4 4.9-13.8 0-19.2z" fill="#ffd85f"/><path d="m58.5 296.9c6.1-6.5 14.6-10.3 24.1-10.3s18 3.8 24.1 10c5.4 5.4 13.8 5.4 19.2 0s5.4-13.8 0-19.2c-11.1-10.7-26.4-17.6-43.3-17.6s-32.2 6.9-43.3 18c-5.4 5.4-5.4 13.8 0 19.2 5.4 4.8 13.8 4.8 19.2-.1z" fill="#3bb4e7"/><path d="m106.7 345.1c-6.1 6.5-14.6 10.3-24.1 10.3s-18-3.8-24.1-10c-5.4-5.4-13.8-5.4-19.2 0s-5.4 13.8 0 19.2c11.1 10.7 26.4 17.6 43.3 17.6s32.2-6.9 43.3-18c5.4-5.4 5.4-13.8 0-19.2-5.4-4.8-13.8-4.8-19.2.1z" fill="#ed5c68"/><circle cx="48.9" cy="287.3" fill="#308bc5" r="13.4"/><circle cx="48.9" cy="354.7" fill="#d5465f" r="13.4"/></svg>