<svg viewBox="0 0 64 64" xmlns="http://www.w3.org/2000/svg"><path d="m45.93388 11.900203c-3.266861-2.0361469-6.350349-2.8366405-9.432426-4.8713743-1.912017-1.2941907-4.562462-4.3776777-6.783391-7.0288287-.430927 4.253547-1.725822 5.980076-3.205501 7.2136112-3.144846 2.4663673-5.118223 3.2069118-7.830732 4.6872968-2.281585 1.170765-14.6747774 8.569162-14.6747774 24.476064 0 15.909019 13.3798824 27.623028 28.2387364 27.623028 14.860972 0 27.747158-10.790092 27.747158-27.129331 0-16.33924-12.084987-23.737636-14.059067-24.970466zm.357577 46.297451c-.308913.308913-3.145552 2.280879-6.474478 2.589791-3.330336.308913-7.830732.493698-10.543947-1.97267-.430927-.431632-.307503-1.048046 0-1.29419.308913-.247553.55576-.432337.925327-.432337.369568 0 .308914 0 .493697.123422 1.232125.985983 3.082077 1.787888 7.028124 1.787888 3.947457 0 6.721325-1.110112 7.953451-2.034736.556467-.431632.801905-.06136.863264.185489.06206.246143.185489.61571-.245438 1.047343zm-10.791502-5.611214c.679186-.616414 1.789298-1.602397 2.836639-2.034734 1.047343-.430927 1.603809-.369568 2.589791-.369568.985983 0 2.034031.06065 2.775281.555057.739839.492286 1.171471 1.602397 1.417614 2.219518.246848.616416 0 .985278-.492286 1.232126-.431631.247554-.493697.123422-.925328-.67707-.431632-.80261-.80261-1.603808-2.960063-1.603808-2.158864 0-2.835934.740544-3.884687 1.603808-1.048048.863264-1.417614 1.171472-1.787181.67707-.370273-.492286-.247554-.985983.43022-1.602399zm16.340651.493697c-2.219518-.184784-6.659966-7.090892-9.496606-7.214318-3.575067-.123422-11.345146 7.460461-17.448647 7.460461-3.698491 0-4.809309-.554351-6.04214-1.356254-1.849951-1.294896-2.774575-3.268273-2.713215-5.980781.06277-4.809311 4.563167-9.310412 10.235034-9.372477 7.214318-.05995 12.208412 7.153662 15.846955 7.091599 3.082782-.06136 9.002204-6.1035 11.899497-6.1035 3.082783 0 3.947457 3.206205 3.947457 5.117517 0 1.91131-.617826 5.36366-2.097506 7.521114-1.480383 2.15816-2.405007 2.959358-4.130829 2.836639z" fill="#0073ba" stroke-width=".705"/></svg>