<svg enable-background="new 0 0 64 64" viewBox="0 .08 64.07 63.72" xmlns="http://www.w3.org/2000/svg"><g fill="#48c6dd"><path d="m49.6 14.5c-4.5-4.5-10.7-7.2-17.5-7.2-13.7 0-24.8 11-24.8 24.7s11.1 24.7 24.7 24.7c13.7 0 24.7-11.1 24.7-24.7.1-6.8-2.7-13-7.1-17.5zm-7-2h.2c3.9 2.1 7 5.4 9.1 9.3-1.5-.2-3.1.1-4.5.8-2.7 1.3-3.9 3.8-4.9 6l-.1.2c-.6 1.3-1.8 2.8-3.7 2.6 0-.6-.2-1.3-.4-1.9 2.2-1.8 2.9-4.7 1.7-7.9l-.1-.3c-.8-2.1-1.5-3.8-.9-5.6.5-1.9 2.2-2.8 3.6-3.2zm-17.3-1.6.1-.1c4.4-1.4 9.1-1.3 13.5.1-1.4.9-2.5 2.3-3 4-.9 2.8.1 5.4.9 7.7l.1.3c.5 1.3.7 3.1-.6 4.3-.5-.5-1.1-.9-1.8-1.2.2-2.8-1.4-5.2-4.5-6.7l-.2-.1c-2.1-.9-3.8-1.7-4.7-3.4-.9-2-.4-3.8.2-4.9zm10.2 21.1c0 1.9-1.6 3.5-3.5 3.5s-3.5-1.6-3.5-3.5 1.6-3.5 3.5-3.5c2 0 3.5 1.5 3.5 3.5zm-13.9-19.6c-.2 1.6 0 3.3.8 4.7 1.4 2.7 3.9 3.8 6.2 4.8l.2.1c1.3.6 2.7 1.6 2.7 3.3-.7 0-1.4.2-2.1.5-1.9-2.2-4.8-2.8-8-1.6l-.3.1c-2.1.8-3.9 1.4-5.8.8-1.5-.5-2.7-1.7-3.2-3.2 2.2-4 5.4-7.4 9.5-9.5zm-10.8 26.1c-1.3-4.2-1.3-8.7 0-13 1 1.2 2.3 2.1 3.7 2.5 2.9.9 5.5 0 7.8-.9l.2-.1c1.4-.5 3.2-.7 4.5.6-.4.5-.7 1.1-1 1.7-2.9-.3-5.5 1.3-6.9 4.4l-.1.4c-.9 2-1.7 3.7-3.4 4.6-1.6.7-3.3.6-4.8-.2zm10.8 13h-.2c-3.9-2.1-7.1-5.4-9.1-9.3.4 0 .7.1 1.1.1 1.2 0 2.4-.3 3.5-.8 2.7-1.3 3.9-3.8 4.9-6l.1-.2c.6-1.3 1.7-2.8 3.6-2.6 0 .6.2 1.3.5 1.9-2.3 1.8-2.9 4.7-1.7 8l.1.2c.8 2.1 1.5 3.8.9 5.6-.7 1.8-2.4 2.7-3.7 3.1zm17.2 1.6c0 .1 0 .1 0 0-4.5 1.5-9.2 1.4-13.6 0 1.4-1 2.5-2.3 3-4 .9-2.8 0-5.4-.9-7.7l-.1-.3c-.5-1.4-.8-3.1.6-4.3.5.5 1.1.8 1.8 1.1-.3 2.8 1.4 5.4 4.5 6.8l.3.1c2 .9 3.8 1.7 4.7 3.4.9 2 .4 3.8-.3 4.9zm3.8-1.5c.2-1.6 0-3.2-.8-4.7-1.4-2.6-3.9-3.8-6.2-4.8l-.2-.1c-1.3-.6-2.8-1.7-2.7-3.5.7-.1 1.3-.2 2-.5 1.8 2.2 4.8 2.9 8.1 1.7l.3-.1c2.1-.8 3.9-1.4 5.8-.8 1.5.5 2.7 1.7 3.2 3.1-2.2 4.1-5.5 7.5-9.5 9.7zm7.1-15.7c-2.9-.9-5.5 0-7.8.9l-.3.1c-1.4.5-3.2.7-4.5-.7.4-.5.7-1 1-1.6h.8c2.6 0 4.9-1.6 6.2-4.4l.1-.2c.9-2 1.7-3.7 3.5-4.6 1.5-.7 3.2-.7 4.6.1.7 2.1 1 4.3 1 6.6 0 2.2-.3 4.3-.9 6.4-1-1.3-2.3-2.2-3.7-2.6z"/><path d="m32.1.5c-17.4 0-31.5 14.1-31.5 31.5s14.1 31.5 31.5 31.5 31.5-14.1 31.5-31.5-14.1-31.5-31.5-31.5zm19.4 51c-5 5-11.9 8.1-19.5 8.1-15.2-.1-27.5-12.4-27.5-27.6s12.3-27.5 27.6-27.5c15.2 0 27.5 12.3 27.5 27.5 0 7.6-3.1 14.5-8.1 19.5z"/><path d="m58.3 6c-3-3-6.8-5.2-10.2-5.9-.2 0-.5.1-.5.3s.1.4.2.5c6.8 3.3 12.2 8.8 15.4 15.7.1.2.4.3.6.2s.3-.3.2-.5c-.7-3.6-2.8-7.3-5.7-10.3z"/><path d="m16.2 63c-6.8-3.2-12.2-8.7-15.4-15.5-.1-.2-.4-.3-.6-.2-.1 0-.2.2-.2.4.7 3.6 2.8 7.3 5.8 10.3s6.8 5.2 10.2 5.8c.2 0 .4-.2.4-.4s-.1-.3-.2-.4z"/></g></svg>