<svg viewBox="-.02 -.07 131.25 152.02" xmlns="http://www.w3.org/2000/svg"><g stroke-width=".281805" transform="matrix(3.5485559 0 0 3.5485559 -174.94921 -339.18037)"><path d="m76.058007 100.6907v32.10778c0 3.5954 2.478016 5.59454 5.108055 5.59454 2.432408 0 5.108056-1.70269 5.108056-5.59454v-31.86454c0-3.291347-2.432407-5.351293-5.108056-5.351293-2.675648 0-5.108055 2.272782-5.108055 5.108053zm0 0" fill="#f8ab00"/><g fill="#e37300"><path d="m62.679765 116.98783v15.81065c0 3.5954 2.478016 5.59454 5.108056 5.59454 2.432407 0 5.108056-1.70269 5.108056-5.59454v-15.56741c0-3.29135-2.432408-5.35129-5.108056-5.35129s-5.108056 2.27278-5.108056 5.10805zm0 0"/><path d="m59.517636 133.28496c0 2.82008-2.287983 5.10806-5.108056 5.10806s-5.108056-2.28798-5.108056-5.10806c0-2.82007 2.287983-5.10805 5.108056-5.10805s5.108056 2.28798 5.108056 5.10805"/></g></g></svg>