<svg height="64" viewBox="0 0 48 48" width="64" xmlns="http://www.w3.org/2000/svg"><path d="m6 42v-36h36v36z" fill="#ffd600"/><path d="m29.538 32.947c.692 1.124 1.444 2.201 3.037 2.201 1.338 0 2.04-.665 2.04-1.585 0-1.101-.726-1.492-2.198-2.133l-.807-.344c-2.329-.988-3.878-2.226-3.878-4.841 0-2.41 1.845-4.244 4.728-4.244 2.053 0 3.528.711 4.592 2.573l-2.514 1.607c-.553-.988-1.151-1.377-2.078-1.377-.946 0-1.545.597-1.545 1.377 0 .964.6 1.354 1.985 1.951l.807.344c2.745 1.169 4.293 2.363 4.293 5.047 0 2.892-2.284 4.477-5.35 4.477-2.999 0-4.702-1.505-5.65-3.368zm-11.586.082c.506.906 1.275 1.603 2.381 1.603 1.058 0 1.667-.418 1.667-2.043v-10.589h3.333v11.101c0 3.367-1.953 4.899-4.805 4.899-2.577 0-4.437-1.746-5.195-3.368z" fill="#000001"/></svg>