<svg viewBox="0 .12 225.57 311.92" xmlns="http://www.w3.org/2000/svg"><g transform="matrix(1.25 0 0 -1.25 0 312)"><path d="m177.718 129.264c0-49.4288-39.175-89.4992-87.5-89.4992-48.3242 0-87.49925 40.0704-87.49925 89.4992 0 49.43 39.17505 89.501 87.49925 89.501 48.325 0 87.5-40.071 87.5-89.501" fill="#d33833" fill-rule="evenodd"/><path d="m6.28438 107.098s-6.33438 93.333 79.66602 96l-5.9996 10-46.6664-15.667-13.3336-15.333-11.66642-22.334-6.66719-26 2-17.333" fill="#ef3d3a"/><path d="m30.2883 190.319c-15.352-15.708-24.85197-37.396-24.85197-61.389 0-23.988 9.49997-45.6788 24.85197-61.3839 15.3594-15.7051 36.5269-25.3961 59.9285-25.3961 23.4022 0 44.5712 9.691 59.9292 25.3961 15.351 15.7051 24.853 37.3959 24.853 61.3839 0 23.993-9.502 45.681-24.853 61.389-15.358 15.702-36.527 25.393-59.9292 25.395-23.4016-.002-44.5691-9.693-59.9285-25.395zm-3.886-126.5721c-16.3156 16.6859-26.4023 39.7461-26.4023 65.1831 0 25.441 10.0867 48.499 26.4023 65.186 16.3118 16.69 38.8915 27.035 63.8145 27.032 24.9232.003 47.5052-10.342 63.8142-27.032 16.317-16.687 26.405-39.747 26.403-65.186.002-25.437-10.086-48.4972-26.403-65.1831-16.309-16.6891-38.891-27.0328-63.8142-27.0328-24.923 0-47.5027 10.3437-63.8145 27.0328z" fill="#231f20"/><path d="m127.051 128.768-13.334-2-18.0002-2-11.6672-.333-11.3328.333-8.6672 2.667-7.6668 8.333-6 17-1.3332 3.667-8 2.666-4.6668 7.667-3.3332 11 3.6672 9.667 8.666 3 7-3.334 3.334-7.333 4 .667 1.3328 1.666-1.3328 7.667-.334 9.667 2 13.333-.0781 7.616 6.0781 9.717 10.6668 7.667 18.6672 8 20.6662-3 18-13 8.334-13.333 5.333-9.667 1.333-24-4-20.667-7.333-18.333-7-9.667" fill="#f0d6b7" fill-rule="evenodd"/><path d="m115.717 71.102-47.6674-2v-8l4-28-2-2.334-33.3328 11.334-2.334 4-3.3332 37.666-7.6656 22.667-1.6672 5.333 26.666 18.333 8.334 3.334 7.3328-9 6.3332-5.667 7.334-2.333 3.3328-1 4-17.333 3-3.6668 7.6672 2.6668-5.334-10.334 29.0002-13.666z" fill="#335061" fill-rule="evenodd"/><path d="m36.7168 187.435 8.666 3 7-3.334 3.334-7.333 4 .667 1 4-2 7.666 2 18.334-1.6672 10 6 7 13 10.333-3.6668 5-18.3332-9-7.6668-6-4.3332-9.333-6.6668-9-2-10.667z" fill="#6d6b6d" fill-rule="evenodd"/><path d="m50.3828 218.768s5 12.333 25 18.333 1 4.334 1 4.334l-21.666-8.334-8.334-8.333-3.666-6.667z" fill="#dcd9d8" fill-rule="evenodd"/><path d="m40.3828 189.768s-7 23.334 19.6668 26.667l-1 4-18.3328-4.334-5.334-17.333 1.334-11.333z" fill="#dcd9d8" fill-rule="evenodd"/><path d="m51.0496 158.768 4.3645 4.229s1.9699-.229 2.3027-2.562c.3328-2.334 1.3328-23.334 15.666-34.668 1.3074-1.034-10.666 1.668-10.666 1.668l-10.6672 16.666" fill="#f7e4cd" fill-rule="evenodd"/><path d="m112.385 165.101s.777 10.104 3.498 9.327 2.721-3.498 2.721-3.498-6.608-4.275-6.219-5.829" fill="#f7e4cd" fill-rule="evenodd"/><path d="m140.05 202.101s-5.494-1.16-6-6c-.506-4.841 6-1 7-.667" fill="#f7e4cd"/><path d="m99.7168 201.767s-7.334-1-7.334-5.666c0-4.667 8.3342-4.334 10.6672-2.334" fill="#f7e4cd"/><g fill-rule="evenodd"><path d="m54.3828 180.101s-12.6672 7.667-14 .333c-1.3332-7.333-4.334-12.667 2-20.333l-4.3332 1.333-4 10.333-1.3328 10 7.666 8.001 8.6668-.667 5-4z" fill="#f7e4cd"/><path d="m60.3828 201.101s5.6668 29.333 34.334 35c23.6012 4.665 35.9992-1 40.6662-6.333 0 0-21 24.999-41.0002 17.333-20-7.667-34.666-21.667-34.3332-30.666.5676-15.328.3332-15.334.3332-15.334" fill="#f7e4cd"/><path d="m137.717 226.435s-9.666.333-10-8.334c0 0-.001-1.333.666-2.666 0 0 7.668 8.667 12.334 4" fill="#f7e4cd"/><path d="m95.3887 214.532s-1.6641 13.303-13.0059 5.569c-7.3332-5-6.666-12-5.3332-13.333 1.3332-1.334.9707-4.019 1.9856-2.176 1.0144 1.843.6804 7.843 4.3476 9.509 3.6668 1.667 9.6777 3.529 12.0059.431" fill="#f7e4cd"/><path d="m64.0496 124.435-31.3328-14s13-51.667 6.3328-67.667l-4.6668 1.666-.3332 19.6672-8.6656 37.3328-3.6672 10.334 32.666 21.999z" fill="#49728b"/><path d="m67.2715 95.8578 4.4453-5.4238v-20h-5.334s-.666 14-.666 15.6672c0 1.6668.666 7.6668.666 7.6668" fill="#49728b"/><path d="m67.3828 67.434-15-.666 4.334-3 10.666-1.6668" fill="#49728b"/><path d="m118.717 70.768 12.333.3332 3-30.6672-12.667-1.666z" fill="#335061"/><path d="m122.05 70.768 18.667 1s7.666 19.3332 7.666 20.3332 6.667 27.9998 6.667 27.9998l-15 15.666-3 2.667-8-8v-31z" fill="#335061"/><path d="m130.383 73.1012-11.666-2.3332 1.666-9.334c4.333-2 11.667 3.334 11.667 3.334" fill="#49728b"/><path d="m130.717 131.434 23.333-17.333.667 8-17.667 16.333z" fill="#49728b"/><path d="m78.9508 5.09805-6.9012 28.00395-3.4324 20.6628-.5676 15.3372 31.2348 1.6628 19.4326.0032-1.767-35.0032 3-26.99996-.333-5-25.3326-2z" fill="#fff"/><path d="m114.383 71.1012s-1.666-34.6672 3.334-59.3332c0 0-10-6.33402-24.6674-8.00003l28.0004 1 3.333 2-4 54.66603-1 11.668" fill="#dcd9d8"/><path d="m134.618 43.098 13 3.6668 24.666 1.3332 3.667 11.3329-6.667 19.6671-7.666 1-10.667-3.3332-10.234-4.9968-5.433.9968-4.234-1.6636" fill="#fff"/><path d="m134.383 49.768s8.666 3.9992 10 3.666l-3.666 18.334 4.333 1.666s3-17.3328 3-19.3328c0 0 18.666-1 20.333-1 0 0 4 7.6668 3 15.6668l3.667-10.6668.333-6-5.333-8-6-1.3332-10 .3332-3.333 4.3328-11.667-1.666-3.667-1.334" fill="#dcd9d8"/></g><path d="m121.284 73.4309-7.333 18.6671-7.667 11s1.666 4.667 4 4.667h7.667l7.333-2.667-.666-12.3332z" fill="#fff"/><path d="m122.717 79.768s-9.334 17.9992-9.334 20.666c0 0 1.666 4 4 3s7.334-3.666 7.334-3.666v6.333l-11.334 2.334-7.666-1 13-30.667 2.666-.334" fill="#dcd9d8" fill-rule="evenodd"/><path d="m81.9512 123.764-9.2344 1.004-8.6672 2.667v-3l4.2348-4.67 13.3332-6" fill="#fff"/><path d="m67.0508 122.765s10.334-4.334 13.6672-3.334l.3316-3.996-9.3316 1.996-5.6672 4z" fill="#dcd9d8" fill-rule="evenodd"/><path d="m134.582 106.63c-5.656.166-10.766.838-15.24 2.1.304 1.834-.265 3.634.192 4.955 1.247.898 3.337.884 5.222 1.095-1.63.801-3.92 1.118-5.801.655-.044 1.273-.615 2.062-.961 3.058 3.18 1.135 10.687 8.576 14.91 6.112 2.012-1.172 2.867-7.866 3.023-11.121.13-2.7-.245-5.424-1.345-6.854" fill="#d33833" fill-rule="evenodd"/><path d="m134.582 106.63c-5.656.166-10.766.838-15.24 2.1.304 1.834-.265 3.634.192 4.955 1.247.898 3.337.884 5.222 1.095-1.63.801-3.92 1.118-5.801.655-.044 1.273-.615 2.062-.961 3.058 3.18 1.135 10.687 8.576 14.91 6.112 2.012-1.172 2.867-7.866 3.023-11.121.13-2.7-.245-5.424-1.345-6.854z" fill="none" stroke="#d33833" stroke-width="2"/><path d="m107.535 115.876c-.015-.428-.033-.859-.05-1.291-1.766-1.16-4.617-1.146-6.555-2.121 2.857-.125 5.106-.813 7.052-1.783-.043-1.078-.084-2.155-.126-3.233-3.237-2.216-6.194-5.516-10.0052-7.5941-1.802-.9828-8.1262-3.5117-10.0434-3.0648-1.0847.2519-1.1824 1.598-1.616 2.8668-.9238 2.7171-3.0508 7.0421-3.2363 11.1321-.2363 5.166-.7578 13.824 4.8094 12.76 4.4914-.857 9.7152-2.926 13.1925-4.826 2.125-1.162 3.354-2.598 6.578-2.846" fill="#d33833" fill-rule="evenodd"/><path d="m107.535 115.876c-.015-.428-.033-.859-.05-1.291-1.766-1.16-4.617-1.146-6.555-2.121 2.857-.125 5.106-.813 7.052-1.783-.043-1.078-.084-2.155-.126-3.233-3.237-2.216-6.194-5.516-10.0052-7.5941-1.802-.9828-8.1262-3.5117-10.0434-3.0648-1.0847.2519-1.1824 1.598-1.616 2.8668-.9238 2.7171-3.0508 7.0421-3.2363 11.1321-.2363 5.166-.7578 13.824 4.8094 12.76 4.4914-.857 9.7152-2.926 13.1925-4.826 2.125-1.162 3.354-2.598 6.578-2.846z" fill="none" stroke="#d33833" stroke-width="2"/><path d="m110.75 109.712c-.494 2.814-1.065 3.617-.844 6.072 7.505 5.004 8.914-8.595.844-6.072" fill="#d33833" fill-rule="evenodd"/><path d="m110.75 109.712c-.494 2.814-1.065 3.617-.844 6.072 7.505 5.004 8.914-8.595.844-6.072z" fill="none" stroke="#d33833" stroke-width="2"/><g fill-rule="evenodd"><path d="m121.617 107.431s-2.334 3.334-.667 4.334 3.334-.001 4.334 1.666 0 2.667.333 4.667 2.001 2.334 3.667 2.667 6.334 1 7-.667l-2 6-4 1.333-12.667-7.333-.667-3.667v-7.333" fill="#ef3d3a"/><path d="m86.6172 96.4309c-.4004 5.2021-.8242 10.3971-1.2957 15.5941-.7055 7.76 1.864 6.406 8.5906 6.406 1.0274 0 6.3259-1.225 6.7049-2 1.818-3.713-3.04-2.888 2.094-5.688 4.334-2.363 11.99 1.435 10.239 6.688-.98 1.168-5.106.364-6.585 1.131-2.604 1.35-5.208 2.7-7.8123 4.05-3.3132 1.719-10.9707 4.225-14.5031 1.823-8.9504-6.087.5649-21.296 3.7578-27.6459" fill="#ef3d3a"/><g fill="#231f20"><path d="m95.3887 214.532c-9.0852 2.116-13.5996-3.802-16.3535-9.94-2.459.596-1.4805 3.94-.8594 5.644 1.6262 4.472 8.1797 10.425 13.5344 9.618 2.3043-.347 5.4226-2.454 3.6785-5.322"/><path d="m139.655 204.186c.143-.006.288-.011.431-.017 2.053-4.265 3.83-8.783 6.42-12.548-1.735-4.041-13.138-7.617-12.962-.361 2.466 1.078 6.723.22 8.909 1.597-1.264 3.469-3.088 6.422-2.798 11.329"/><path d="m100.04 204.075c1.948-3.571 2.582-7.323 5.351-10.022 1.247-1.215 3.672-2.696 2.47-6.075-.281-.797-2.334-2.574-3.519-2.923-4.329-1.278-14.4162-.264-11.0002 5.133 3.5801-.167 8.3922-2.325 11.0682.274-2.055 3.285-5.7186 9.784-4.37 13.613"/><path d="m138.03 167.781c-6.518-4.187-13.786-8.74-24.466-7.684-2.282 1.984-3.152 6.399-.935 9.315 1.154-1.984.429-5.633 3.645-6.182 6.06-1.037 13.113 3.707 17.472 5.365 2.703 4.557-.233 6.233-2.668 9.166-4.985 6.009-11.672 13.457-11.429 22.453 2.015 1.461 2.189-2.23 2.478-2.902 2.603-6.092 9.154-13.883 13.935-19.097 1.174-1.284 3.107-2.516 3.322-3.365.62-2.469-1.613-5.427-1.354-7.069"/><path d="m52.1016 172.189c-2.043 1.166-2.5293 6.302-4.9278 6.448-3.4277.208-2.8027-6.663-2.789-10.681-2.3594 2.142-2.7743 8.737-1.041 12.124-1.9754.97-2.8575-1.07-3.9532-1.789 1.4082 10.23 14.9649 4.745 12.711-6.102"/><path d="m142.18 163.521c-3.034-5.775-7.326-12.135-16.229-12.32-.181 1.865-.32 4.703.01 5.826 6.806.654 11.008 4.118 16.219 6.494"/><path d="m99.5266 159.777c5.6784-2.986 16.1144-3.307 23.8324-3.081.414-1.691.404-3.78.42-5.842-9.921-.495-21.651 1.96-24.2524 8.923"/><path d="m98.4473 154.209c3.9267-9.859 17.4227-8.724 28.8037-8.452-.501-1.28-1.587-2.792-2.937-3.339-3.647-1.484-13.706-2.61-18.769.079-3.211 1.707-5.274 5.564-7.0333 7.825-.8496 1.092-5.0801 3.881-.0644 3.887"/></g><path d="m137.556 99.8262c-4.608-7.8922-9.017-15.9981-14.484-22.9594 2.292 6.7391 3.273 18.0184 3.619 26.6172 4.795 2.244 8.901-.505 10.865-3.6578" fill="#81b0c4"/><path d="m162.352 71.4609c-5.159-1.0328-8.784-6.0468-13.817-5.725 2.766 3.8993 7.613 5.543 13.817 5.725" fill="#231f20"/><path d="m164.628 63.3871c-4.205-.4441-9.144-1.125-13.409-.7742 2.019 3.084 9.798 2.0199 13.409.7742" fill="#231f20"/><path d="m166.085 56.4262c-4.726-.1024-10.6-.0082-15.092.3687 2.657 2.8539 12.027 1.059 15.092-.3687" fill="#231f20"/><path d="m128.664 37.377c.678-5.9352 3.031-11.9489 2.736-18.4489-2.613-.8812-4.114-1.6519-7.615-1.6472-.247 5.5242-.986 13.9691-.765 19.2351 1.722-.114 4.261 1.2301 5.644.861" fill="#dcd9d8"/><path d="m121.045 124.849c-2.373-1.549-4.394-3.483-6.673-5.137-5.054-.25-7.812.35-11.525 3.252.061.233.434.129.448.415 5.41-2.411 12.287.982 17.75 1.47" fill="#f0d6b7"/><path d="m92.6445 87.9711c1.4864 6.441 7.3106 9.7769 12.5995 13.3239 5.459-6.9282 8.779-15.838 12.435-24.436-8.638 2.6039-17.464 6.8289-25.0345 11.1121" fill="#81b0c4"/><path d="m123.02 36.516c-.221-5.266.518-13.7109.765-19.2351 3.501-.0047 5.002.766 7.615 1.6472.295 6.5-2.058 12.5137-2.736 18.4489-1.383.3691-3.922-.975-5.644-.861zm-54.5141 29.9488c2.3086-21.223 5.6523-39.0636 11.7851-57.85699 13.6113-4.13281 30.02-4.49297 42.051-.76367-2.209 10.60706-1.244 23.52066-2.535 34.83986-.973 8.5078-.477 17.068-1.811 25.748-14.578 3.0328-35.1835.709-49.4901-1.9672zm52.9371 1.834c-.123-9.1148.408-18.1058 1.104-27.232 3.5.5254 5.875.8762 9.127 1.5891-1.056 8.7859-.926 18.6722-3.077 26.4441-2.486-.0238-4.675.0289-7.154-.8012zm17.755 1.4692c-1.661.3808-3.595.0148-5.182-.016.746-7.4301 2.556-15.629 3.193-23.4282 2.497-.0777 3.831 1.1 5.885 1.4961.11 6.8461-.598 16.2781-3.896 21.9481zm26.884-24.5629c5.205 1.264 8.478 7.639 7.022 14.1859-.977 4.4-2.717 12.6852-4.579 15.5-1.376 2.082-5.107 4.8078-8.086 2.9-4.846-3.1031-13.383-4.0039-16.917-7.7601 1.772-5.9 2.322-14.0039 3.053-21.4797 6.054-.3774 13.503 1.666 18.538-.5024-3.515-1.1386-8.076-1.1476-11.113-2.807 2.482-1.1988 8.293-.9566 12.082-.0367zm-48.403 31.6539c-3.656 8.598-6.976 17.5078-12.435 24.436-5.2889-3.547-11.1131-6.8829-12.5995-13.3239 7.5705-4.2832 16.3965-8.5082 25.0345-11.1121zm9.012 26.625c-.346-8.5988-1.327-19.8781-3.619-26.6172 5.467 6.9613 9.876 15.0672 14.484 22.9594-1.964 3.1528-6.07 5.9018-10.865 3.6578zm-10.216 3.63c-2.071.223-3.829-2.381-6.522-1.255-.617-.682-1.178-1.421-1.807-2.087 5.948-7.1681 8.651-17.338 13.245-25.7618 2.465 8.0918 2.181 16.957 2.724 25.7888-3.387-.215-5.266 3.063-7.64 3.315zm-6.569 8.67c-.221-2.455.35-3.258.844-6.072 8.07-2.523 6.661 11.076-.844 6.072zm-8.949 2.938c-3.4773 1.9-8.7011 3.969-13.1925 4.826-5.5672 1.065-5.0457-7.594-4.8094-12.76.1855-4.09 2.3125-8.415 3.2363-11.1321.4336-1.2688.5313-2.6149 1.616-2.8668 1.9172-.4469 8.2414 2.082 10.0434 3.0648 3.8112 2.0781 6.7682 5.3781 10.0052 7.5941.042 1.078.083 2.155.126 3.233-1.946.97-4.195 1.658-7.052 1.783 1.938.975 4.789.961 6.555 2.121.017.432.035.863.05 1.291-3.224.248-4.453 1.684-6.578 2.846zm-33.2136 6.033c-2.886-2.93 8.0945-6.924 11.5906-7.139-.0195 1.854 1.0566 3.602.8398 4.932-4.1523.729-9.6093.248-12.4304 2.207zm35.5516-1.376c-.014-.286-.387-.182-.448-.415 3.713-2.902 6.471-3.502 11.525-3.252 2.279 1.654 4.3 3.588 6.673 5.137-5.463-.488-12.34-3.881-17.75-1.47zm32.632-9.895c-.156 3.255-1.011 9.949-3.023 11.121-4.223 2.465-11.73-4.977-14.91-6.112.346-.996.917-1.785.961-3.058 1.881.463 4.171.146 5.801-.655-1.885-.211-3.975-.197-5.222-1.095-.457-1.321.112-3.121-.192-4.955 4.474-1.262 9.584-1.934 15.24-2.1 1.1 1.43 1.475 4.154 1.345 6.854zm-73.0422 8.437c-.9063.646-7.0371 8.623-7.877 8.292-11.0937-4.375-21.4668-11.94-30.7363-19.095 8.8379-18.9641 12.4055-42.1981 13.0359-64.5918 10.1242-4.7352 19.0168-11.5614 32.7551-12.2742-1.5898 11.248-3.041 21.2832-3.9434 31.873-3.4519 1.4551-8.4043-.066-11.6347.4512-.0274 3.8929 4.9336 1.7047 5.3468 4.3226.3114 1.9801-2.7296 2.1301-1.7394 5.2481 2.5254-.918 3.8516-2.9457 6.5449-3.7071 2.461 5.384-.0344 14.9102.3203 19.4102.0672.8449.4219 4.6809 2.3145 4.0078 1.675-.5957-.0957-10.2019.0879-14.4609.1672-3.9239-.4739-7.7207 1.1152-10.184 13.2754 1.807 26.7656 2.975 41.1294 3.3691-3.16 1.3559-6.914 2.6391-11.0298 4.959-2.2312 1.2578-9.2644 3.875-9.9082 5.9942-1.0273 3.3769 2.6953 5.1757 3.332 8.0707-6.7011-3.6547-8.0085 3.5031-9.5937 8.5741-1.4363 4.593-2.2539 8.024-2.6063 10.673-5.7726 2.752-11.9445 5.539-16.9132 9.068zm67.1792 7.327c9.243 4.482 10.909-16.751 7.286-23.591.56-2.04 2.486-2.821 3.272-4.655-5.158-9.2399-10.887-17.8649-16.15-26.9961 3.915 2.4371 9.507.4359 14.114 2.2601 1.684.666 2.903 4.5211 4.178 7.6051 3.507 8.4848 7.189 19.1819 8.827 27.2789.37 1.845 1.378 5.865 1.152 7.507-.403 2.94-4.392 5.12-6.421 6.938-3.738 3.358-6.092 6.313-9.991 9.453-1.581-2.334-4.974-3.902-6.267-5.8zm-88.3179 81.968c-4.4043-4.846-3.4824-13.926-2.9492-20.386 7.9609 5.008 18.5273-.396 18.4277-8.914 3.8008.101 1.4199 4.747.7324 7.74-2.2468 9.776 3.7852 20.397.2735 29.337-6.8184-.517-12.42-3.302-16.4844-7.777zm31.5137 28.126c-9.9707-2.826-22.7493-10.071-26.8465-19.028 3.1726.461 5.375 2.061 8.5047 2.259 1.1828.077 2.7324-.496 4.0918-.158 2.709.672 4.9953 6.746 7.039 9.006 1.9922 2.207 4.3867 3.15 6.0254 5.162 1.0528.508 2.6094.473 2.6692 2.054-.4563.488-.9368.86-1.4836.705zm51.9032-2.658c-10.349 5.839-27.8661 10.231-38.8747 4.743-8.8828-4.429-20.8899-11.757-24.9836-21.043 3.8242-8.961-1.1328-17.172-1.4492-26.27-.168-4.841 2.2793-9.067 2.4668-14.337-1.3086-2.159-5.3067-2.425-8.0743-2.277-.9316 4.662-2.5625 9.902-7.3632 10.428-6.793.743-11.7598-4.879-12.0684-10.754-.3652-6.909 5.3066-18.36 13.3457-17.565 3.1055.307 3.8684 3.42 7.252 3.388 1.8339-3.659-2.8289-4.808-3.3086-7.425-.125-.676.3867-3.318.6843-4.557 1.4602-6.033 4.7153-13.841 7.9192-18.434 4.0664-5.826 12.0555-6.704 20.6504-7.275 1.5351 3.307 7.1902 3.035 10.875 2.17-4.416 1.749-8.5215 5.989-11.9239 9.742-3.9082 4.306-7.8671 8.925-8.0671 14.553 7.3855-10.246 13.4871-19.194 26.9168-23.701 10.1618-3.408 22.0298 1.562 29.8378 7.045 3.24 2.279 5.174 5.895 7.477 9.205 8.617 12.395 12.638 30.087 11.754 47.235-.364 7.072-.348 14.12-2.721 18.878-2.48 4.975-10.868 9.426-15.778 4.926-.91 4.838 4.083 7.83 9.948 6.089-4.182 5.397-8.571 11.882-14.515 15.236zm19.281-159.5672c8.087 4.0203 23.197 10.8211 28.267-.0148 1.871-3.9942 4.066-10.7461 5.035-14.8692 1.369-5.8168-1.484-18.043-7.463-19.9949-5.281-1.7238-11.443-1.6188-17.804-.341-.749.623-1.583 1.709-2.166 2.841-4.542.1762-8.795-.2438-12.383-2.1109.34-3.359-1.932-3.8981-4.062-4.5899-1.579-6.2609 3.159-14.4371 2.025-20.1461-.809-4.0672-5.813-4.6961-9.491-5.457-.12-2.2602.161-4.14689.412-6.059-.841-3.09883-4.613-4.86289-8.187-5.29492-11.759-1.414064-29.6133-2.049221-40.9239 2.01797-3.1562 7.74175-5.6426 17.15785-8.2715 25.99805-11.0312-1.1781-19.9531 4.7598-28.364 8.65-2.9121 1.35-6.9406 2.0937-8.0285 4.4117-1.0547 2.2442-.6231 6.5453-.8848 10.6082-.666 10.377-1.2363 20.386-3.9766 31.011-1.2304 4.7679-3.375 8.975-4.8711 13.5691-1.3828 4.2579-3.7988 9.5199-4.4289 13.7659-.9343 6.293 4.9914 6.643 8.7805 9.37 5.8574 4.217 10.4551 6.549 16.7988 10.355 1.8789 1.127 7.545 3.98 8.1895 5.294 1.2812 2.605-2.1992 6.278-3.1297 8.32-1.4719 3.229-2.2395 5.972-2.4504 9.158-5.3215.841-9.3555 4.008-11.7922 7.579-4.0308 5.91-6.8262 16.844-3.3387 25.161.2735.655 1.6375 1.943 1.8387 2.949.3969 1.981-.7469 4.615-.818 6.722-.3664 10.81 1.829 20.124 9.1063 23.384 2.9543 11.769 13.5281 15.682 23.4902 21.531 3.7239 2.186 7.8289 3.583 12.0684 5.143 15.2082 5.597 38.5419 4.543 51.1639-5.003 5.352-4.048 13.907-12.595 16.967-18.783 8.082-16.337 7.508-43.64 1.855-63.513-.76-2.668-1.862-6.59-3.401-9.795-1.073-2.238-4.408-6.716-4.003-8.692.417-2.043 7.604-7.5 9.145-8.986 2.775-2.677 8.047-6.23 8.474-9.608.459-3.595-1.584-8.513-2.619-11.982-3.46-11.5769-6.836-22.2781-10.759-32.5992" fill="#231f20"/><path d="m90.491 157.255c.4387.584 2.8508 1.471 6.2258-.154 0 0-4-.667-3.6672-7.336l-1.6668.334s-1.7226 6.047-.8918 7.156" fill="#f7e4cd"/><path d="m119.717 99.934c0-1.0121-.821-1.8328-1.834-1.8328-1.012 0-1.833.8207-1.833 1.8328 0 1.012.821 1.834 1.833 1.834 1.013 0 1.834-.822 1.834-1.834" fill="#1d1919"/><path d="m121.55 91.434c0-1.0121-.821-1.8328-1.834-1.8328-1.012 0-1.833.8207-1.833 1.8328s.821 1.834 1.833 1.834c1.013 0 1.834-.8219 1.834-1.834" fill="#1d1919"/></g></g></svg>