<svg enable-background="new 0 0 652 652" viewBox="20.77 262.5 599.85 117.13" xmlns="http://www.w3.org/2000/svg"><path d="m276.3 281.1c-4.5-4.5-9.8-8.1-15.7-10.6-6-2.6-12.5-3.9-19-3.9-6.2-.1-12.3 1-18 3.2s-10.9 5.5-15.4 9.6l-7.9-9c-.9-1-2.1-1.5-3.4-1.5-2.5 0-4.5 2.1-4.5 4.5v101.6c0 2.2 1.7 4.2 4 4.5h19.2c2.5 0 4.5-2.1 4.5-4.5v-58.5c0-2.8.6-5.6 1.7-8.2 1.1-2.5 2.6-4.8 4.5-6.7 4-4 9.5-6.3 15.2-6.2 2.8 0 5.6.6 8.1 1.7 5.1 2.2 9.1 6.3 11.2 11.4 1 2.5 1.5 5.2 1.5 7.9v58.5c0 2.5 2 4.5 4.5 4.5h19.2c2.5 0 4.5-2.1 4.5-4.5v-58.5c0-6.6-1.3-13.2-3.9-19.3-2.5-6.1-6-11.4-10.3-16zm217.3-12.2h-75.4c-2.5 0-4.5 2.1-4.5 4.5v19.1c0 2.5 2 4.5 4.5 4.5h5c2.5 0 4.5 2 4.5 4.5v28.5c0 6.6 1.3 13.2 3.9 19.2 5.1 11.8 14.5 21.3 26.3 26.4 6.1 2.6 12.6 3.9 19.2 3.9h16.9c2.5 0 4.5-2.1 4.5-4.5v-19.1c0-2.5-2-4.5-4.5-4.5h-16.8c-2.9 0-5.7-.6-8.3-1.7-2.5-1.1-4.8-2.7-6.8-4.6-2-2-3.5-4.3-4.5-6.8-1.1-2.6-1.7-5.5-1.6-8.4v-28.3c0-2.3 1.7-4.2 4-4.5h33.7c2.5 0 4.5-2.1 4.5-4.5v-19c-.2-2.6-2.2-4.6-4.6-4.7zm122.7-2c-1.3 0-2.6.6-3.4 1.6l-6.7 8c-1.6 2-4.5 2.2-6.4.6-1.6-1.4-3.3-2.7-5.1-4-3-2.1-6.2-4-9.5-5.6s-6.7-2.9-10.2-3.7c-3.5-.9-7.1-1.3-10.7-1.3-7.6 0-15 1.4-22 4.3-6.8 2.8-12.8 6.9-18 12.1-5.2 5.3-9.3 11.7-12.1 18.6-3 7.5-4.4 15.5-4.4 23.6-.1 8.5 1.3 16.8 4.4 24.7 2.7 6.9 6.9 13.2 12.2 18.4 5.1 5 11.2 8.9 18 11.4 7 2.7 14.4 4 22 4 3.5 0 7.1-.5 10.5-1.4 3.5-.9 6.9-2.1 10.2-3.7s6.4-3.4 9.4-5.5c1.7-1.2 3.3-2.4 4.9-3.7 2-1.6 5-1.2 6.4.9l6.7 9.3c2.5 3.6 8.1 1.8 8.1-2.6v-101.5c.2-2.5-1.8-4.5-4.3-4.5zm-26.2 65.4c-1.4 3.5-3.4 6.7-6 9.6-2.5 2.8-5.6 5.1-8.9 6.7-3.4 1.6-7.1 2.5-10.9 2.5-3.7 0-7.4-.7-10.9-2-3.4-1.3-6.4-3.2-8.9-5.8-2.6-2.7-4.6-5.9-5.9-9.5-1.5-4.2-2.3-8.5-2.1-13-.1-4.4.7-8.8 2.2-12.9 1.3-3.4 3.4-6.5 5.9-9.1s5.5-4.5 8.9-5.8c3.5-1.3 7.2-2 10.9-1.9 3.8 0 7.5.8 10.9 2.5 3.3 1.6 6.3 3.7 8.8 6.4 2.6 2.8 4.6 6.1 6 9.6 3 7.4 3 15.4 0 22.7zm-545.5-63.6h-19.3c-2.5 0-4.5 2-4.5 4.5v101.8c0 2.5 2 4.5 4.5 4.5h19.3c2.5 0 4.5-2.1 4.5-4.5v-101.8c0-2.4-2-4.5-4.5-4.5zm79.2 7.3c2.3-2.9.3-7.2-3.4-7.3h-22c-1.3 0-2.6.6-3.4 1.6l-43.4 50.7c-1.5 1.7-1.5 4.2 0 5.9l43.9 50.8c.9 1 2.1 1.6 3.4 1.6h22c3.7-.1 5.7-4.4 3.5-7.3l-39.3-44.8c-1.5-1.7-1.5-4.2 0-5.9zm42.3-7.3c-1.3 0-2.6.5-3.4 1.5l-.9 1-18.3 20.9c-.7.8-1.1 1.9-1.1 2.9v80c0 2.5 2 4.5 4.5 4.5h19.1c2.5 0 4.5-2.1 4.5-4.5v-101.8c-.1-2.4-2-4.4-4.4-4.5zm230 51.9c-3.2-3-7-5.3-11.1-6.9-4.3-1.6-9-2.4-13.6-2.4h-29.3c-1.9 0-3.7-.8-5-2.1-1.2-1.4-1.8-3.2-1.8-5 0-4 3.3-7.3 7.3-7.3h52.6c2.5 0 4.5-2.1 4.5-4.5v-18.8c0-2.5-2-4.5-4.5-4.5h-53.2c-4.8-.1-9.6.9-14 2.8-8.3 3.6-14.8 10.3-18.3 18.6-1.8 4.4-2.7 9-2.7 13.8 0 4.7.9 9.4 2.8 13.7 3.4 8.4 9.9 15.2 18.2 18.9 4.3 1.9 9 2.8 13.7 2.8h30.3c3.1-.1 5.8 2.3 6.1 5.4.3 3.5-2.4 6.5-5.9 6.5h-60.7c-2.5 0-4.5 2-4.5 4.5v18.9c0 2.5 2 4.5 4.5 4.5h59.9c9.3 0 18.2-3.7 24.7-10.3 3.1-3.2 5.6-7 7.3-11.2 1.9-4.3 2.8-9 2.8-13.7 0-4.6-.9-9.1-2.8-13.3-1.7-3.9-4.2-7.4-7.3-10.4zm0 0" fill="#5333ed"/></svg>