<svg viewBox="13.32 12.43 328.35 348.47" xmlns="http://www.w3.org/2000/svg"><g transform="matrix(.13333333 0 0 -.13333333 0 373.33333)"><path d="m1952.27 1471.74c19.08 2.28 37.35 2.38 54.14 0 9.72 22.29 11.39 60.72 2.65 102.56-12.99 62.2-30.58 99.84-66.93 93.98-36.34-5.86-37.68-50.92-24.69-113.12 7.31-34.98 20.33-64.89 34.83-83.42"/><path d="m1640.26 1422.52c26-11.41 41.98-18.97 48.24-12.36 4.02 4.13 2.82 11.99-3.39 22.13-12.83 20.95-39.23 42.2-67.24 54.13-57.29 24.65-125.59 16.46-178.29-21.41-17.4-12.75-33.9-30.41-31.53-41.13.76-3.47 3.37-6.08 9.47-6.93 14.34-1.64 64.47 23.7 122.2 27.23 40.77 2.5 74.54-10.25 100.54-21.66"/><path d="m1587.95 1392.68c-33.86-5.35-52.55-16.51-64.54-26.9-10.24-8.95-16.56-18.83-16.51-25.79.03-3.3 1.46-5.21 2.59-6.16 1.55-1.37 3.38-2.12 5.57-2.12 7.65 0 24.79 6.87 24.79 6.87 47.13 16.87 78.22 14.83 109.04 11.32 17.02-1.91 25.06-2.97 28.8 2.87 1.1 1.67 2.45 5.3-.97 10.82-7.93 12.87-42.13 34.63-88.77 29.09"/><path d="m1846.91 1283.11c23-11.3 48.32-6.86 56.56 9.91s-3.72 39.52-26.72 50.82-48.32 6.87-56.56-9.9 3.72-39.53 26.72-50.83"/><path d="m1994.75 1412.3c-18.67.31-34.18-20.2-34.61-45.82s14.36-46.64 33.04-46.96c18.69-.31 34.18 20.2 34.62 45.81.43 25.63-14.36 46.65-33.05 46.97"/><path d="m720.25 952.68c-5.164-1.2-11.02-2.571-17.426-2.45-13.746.258-25.383 6.129-31.914 16.168-8.508 13.071-8.019 32.551 1.375 54.872 1.27 3 2.762 6.34 4.383 9.98 14.984 33.62 40.062 89.88 11.91 143.5-21.191 40.35-55.75 65.48-97.308 70.76-39.891 5.05-80.965-9.74-107.161-38.65-41.328-45.59-47.785-107.63-39.793-129.55 2.93-8.03 7.508-10.25 10.836-10.71 7.032-.95 17.43 4.17 23.946 21.69.468 1.26 1.09 3.22 1.863 5.7 2.902 9.27 8.305 26.51 17.16 40.34 10.672 16.68 27.297 28.16 46.813 32.34 19.875 4.25 40.195.47 57.203-10.67 28.949-18.95 40.097-54.43 27.742-88.28-6.391-17.5-16.774-50.97-14.481-78.47 4.629-55.68 38.864-78.031 69.629-80.398 29.911-1.133 50.813 15.648 56.102 27.929 3.125 7.258.488 11.68-1.207 13.571-4.645 5.828-12.285 4.046-19.672 2.328"/><path d="m1510.12 880.578c.01-.019.03-.039.04-.058.02-.04.03-.079.05-.122-.03.063-.06.122-.09.18zm960.52-10.648c-19.1-115.77-68.31-209.719-151.01-296.149-50.33-54.191-111.45-101.301-181.38-135.562-37.13-19.508-76.67-36.379-118.44-50.02-311.75-101.82-630.86 10.121-733.74 250.512-8.21 18.07-15.15 36.988-20.62 56.777-43.84 158.41-6.62 348.462 109.71 468.092.01.01-.02.05-.01.06 7.18 7.62 14.49 16.59 14.49 27.88 0 9.44-6 19.4-11.2 26.46-40.7 59.04-181.68 159.63-153.38 354.31 20.32 139.85 142.63 238.35 256.67 232.51 9.63-.5 19.28-1.09 28.9-1.66 49.41-2.93 92.53-9.26 133.21-10.97 68.08-2.94 129.32 6.96 201.83 67.38 24.47 20.39 44.07 38.06 77.26 43.68 3.48.59 12.17 3.71 29.51 2.89 17.7-.94 34.55-5.81 49.7-15.89 58.14-38.68 66.39-132.38 69.4-200.92 1.71-39.12 6.44-133.79 8.06-160.96 3.7-62.14 20.03-70.9 53.08-81.78 18.58-6.11 35.83-10.68 61.25-17.81 76.96-21.61 122.59-43.53 151.35-71.69 17.15-17.59 25.12-36.29 27.59-54.12 9.08-66.2-51.4-147.98-211.48-222.28-174.98-81.221-387.27-101.779-533.94-85.451-11.25 1.261-51.25 5.791-51.39 5.811-117.32 15.8-184.25-135.831-113.84-239.702 45.38-66.949 168.99-110.519 292.67-110.539 283.56-.051 501.52 121.051 582.58 225.633 2.43 3.129 2.67 3.469 6.49 9.238 3.99 6.02.7 9.32-4.27 5.93-66.24-45.32-360.45-225.258-675.15-171.129 0 0-38.24 6.277-73.15 19.871-27.74 10.789-85.79 37.488-92.85 97.059 253.97-78.539 413.88-4.301 413.88-4.301 2.89 1.219 4.88 4.531 4.55 7.801-.41 4.031-4.01 6.961-8.03 6.55 0 0-208.19-30.82-404.86 41.18 21.42 69.629 78.38 44.481 164.48 37.539 155.18-9.25 294.27 13.418 397.05 42.922 89.07 25.566 206.06 75.958 296.92 147.668 30.65-67.32 41.48-141.41 41.48-141.41s23.72 4.25 43.54-7.961c18.74-11.52 32.48-35.488 23.09-97.449zm-1446.37 1102.85c97.55 112.73 217.65 210.74 325.22 265.77 3.72 1.9 7.67-2.14 5.65-5.79-8.54-15.47-24.99-48.59-30.2-73.72-.81-3.91 3.45-6.86 6.75-4.61 66.93 45.62 183.35 94.5 285.47 100.78 4.39.27 6.51-5.35 3.02-8.03-15.53-11.91-32.51-28.39-44.92-45.07-2.11-2.84-.12-6.92 3.41-6.95 71.71-.5 172.8-25.6 238.68-62.55 4.46-2.5 1.28-11.14-3.7-10-99.69 22.86-262.87 40.19-432.37-1.15-151.32-36.91-266.82-93.9-351.09-155.19-4.25-3.09-9.37 2.53-5.92 6.51zm-506.805-536.12c-88.324-17.17-166.176-67.23-213.774-136.38-28.457 23.73-81.464 69.67-90.824 87.57-76 144.31 82.942 424.89 193.977 583.34 274.402 391.58 704.176 687.98 903.136 634.2 32.33-9.15 139.46-133.35 139.46-133.35s-198.88-110.34-383.3-264.15c-248.503-191.35-436.222-469.45-548.675-771.23zm148.418-662.211c-13.363-2.277-27.008-3.179-40.754-2.859-132.902 3.57-276.453 123.211-290.715 265.1-15.769 156.83 64.363 277.54 206.25 306.15 16.961 3.42 37.457 5.39 59.563 4.24 79.492-4.35 196.64-65.4 223.406-238.57 23.699-153.369-13.949-309.541-157.75-334.061zm1800.267 277.711c-1.14 4.02-8.56 31.14-18.75 63.81-10.19 32.66-20.74 55.66-20.74 55.66 40.88 61.2 41.6 115.93 36.17 146.91-5.8 38.43-21.79 71.17-54.04 105.01-32.23 33.85-98.17 68.51-190.83 94.52-10.6 2.98-45.55 12.57-48.62 13.5-.24 2.01-2.56 114.63-4.67 162.97-1.53 34.95-4.53 89.5-21.46 143.25-20.18 72.73-55.33 136.39-99.2 177.1 121.08 125.52 196.66 263.78 196.48 382.4-.34 228.1-280.48 297.13-625.71 154.17-.37-.15-72.63-30.79-73.15-31.05-.32.32-132.24 129.75-134.22 131.48-393.61 343.31-1624.262-1024.59-1230.801-1356.82l85.993-72.84c-22.309-57.78-31.071-123.98-23.911-195.16 9.188-91.441 56.356-179.09 132.793-246.808 72.571-64.293 167.977-104.981 260.571-104.91 153.113-352.84 502.955-569.301 913.155-581.4926 440.01-13.0703 809.37 193.4026 964.14 564.2886 10.12 26.032 53.08 143.313 53.08 246.84 0 104.052-58.82 147.172-96.28 147.172"/></g></svg>