<svg viewBox="0 -.02 319.33 221.35" xmlns="http://www.w3.org/2000/svg"><g transform="matrix(.13333333 0 0 -.13333333 0 221.32)"><path d="m2394.87 0h-2394.87v1659.91h2394.87z" fill="#fff"/><path d="m1477.69 1243.17c-7.94 0-13.54-.96-19.19-2.35v-.94h.91c3.78-7.47 10.34-12.66 14.98-19.2 3.77-7.49 7.05-14.95 10.79-22.45.46.46.91.95.91.95 6.6 4.66 9.87 12.14 9.87 23.39-2.83 3.3-3.27 6.55-5.63 9.84-2.8 4.67-8.89 7.01-12.64 10.76" fill="#5b85a4" fill-rule="evenodd"/><path d="m733.074 319.32h-64.832c-2.285 109.43-8.601 212.328-18.933 308.719h-.571l-98.711-308.719h-49.363l-98.113 308.719h-.578c-7.278-92.57-11.856-195.469-13.758-308.719h-59.113c3.82 137.731 13.378 266.84 28.679 387.36h80.356l93.535-284.621h.574l94.109 284.621h76.887c16.836-141.149 26.778-270.301 29.832-387.36" fill="#2c7493"/><path d="m1014.26 605.109c-26.401-143.25-61.225-247.347-104.447-312.289-33.68-50.039-70.575-75.058-110.75-75.058-10.711 0-23.918 3.226-39.59 9.636v34.532c7.656-1.121 16.64-1.719 26.972-1.719 18.743 0 33.848 5.18 45.34 15.519 13.762 12.598 20.649 26.758 20.649 42.45 0 10.718-5.371 32.711-16.067 65.98l-71.152 220.949h63.691l51.067-165.25c11.472-37.519 16.257-63.711 14.343-78.64 27.93 74.601 47.442 155.902 58.543 243.89z" fill="#2c7493"/><g fill="#f18513"><path d="m1877.3 319.32h-184.19v387.36h61.98v-339.711h122.21z"/><path d="m1414.23 396.809c-15.69 25.25-23.55 65.769-23.55 121.64 0 97.539 29.66 146.344 88.95 146.344 31 0 53.75-11.672 68.3-34.992 15.67-25.262 23.53-65.43 23.53-120.52 0-98.32-29.66-147.5-88.95-147.5-30.99 0-53.75 11.66-68.28 35.028m230.68-86.829-71.2 35.11c6.34 5.199 12.36 10.808 17.81 17.301 30.23 35.539 45.36 88.14 45.36 157.781 0 128.148-50.31 192.258-150.92 192.258-49.35 0-87.81-16.25-115.35-48.797-30.24-35.582-45.34-87.985-45.34-157.235 0-68.089 13.38-118.039 40.16-149.769 24.49-28.68 61.41-43.039 110.77-43.039 18.43 0 35.34 2.269 50.71 6.808l92.72-53.957z" fill-rule="evenodd"/><path d="m1298.26 426.691c0-32.851-12.07-59.82-36.13-80.921-24.08-21.008-56.43-31.54-96.94-31.54-37.89 0-74.61 12.122-110.18 36.168l16.64 33.274c30.61-15.301 58.31-22.942 83.18-22.942 23.33 0 41.59 5.192 54.8 15.45 13.18 10.332 21.08 24.742 21.08 43.019 0 23-16.04 42.66-45.47 59.153-27.17 14.91-81.47 46.039-81.47 46.039-29.42 21.461-44.17 44.488-44.17 82.429 0 31.379 11 56.743 32.97 76.039 22.02 19.336 50.43 29.004 85.22 29.004 35.96 0 68.66-9.597 98.11-28.722l-14.96-33.243c-25.2 10.684-50.05 16.047-74.55 16.047-19.88 0-35.2-4.773-45.88-14.375-10.74-9.519-17.38-21.769-17.38-36.699 0-22.941 16.39-42.84 46.65-59.652 27.51-14.918 83.14-46.649 83.14-46.649 30.26-21.422 45.34-44.261 45.34-81.879"/></g><path d="m1955.08 836.434c-37.46.937-66.47-2.801-90.8-13.106-7.02-2.805-18.24-2.805-19.2-11.699 3.77-3.738 4.22-9.816 7.52-14.988 5.6-9.36 15.41-21.977 24.32-28.547 9.83-7.492 19.66-14.953 29.97-21.504 18.24-11.281 38.84-17.805 56.6-29.043 10.33-6.543 20.59-14.961 30.92-22 5.13-3.742 8.38-9.836 14.96-12.152v1.418c-3.3 4.199-4.22 10.285-7.48 14.992-4.67 4.644-9.36 8.883-14.05 13.543-13.58 18.25-30.45 34.148-48.66 47.254-14.99 10.324-47.77 24.367-53.83 41.632 0 0-.49.496-.95.957 10.3.95 22.49 4.7 32.31 7.539 15.89 4.2 30.4 3.25 46.78 7.45 7.5 1.886 14.99 4.242 22.51 6.543v4.242c-8.47 8.406-14.53 19.656-23.42 27.605-23.85 20.586-50.09 40.696-77.23 57.571-14.53 9.363-33.25 15.418-48.7 23.394-5.59 2.813-14.94 4.199-18.23 8.906-8.43 10.293-13.13 23.848-19.2 36.036-13.56 25.713-26.69 54.253-38.37 81.443-8.42 18.24-13.57 36.48-23.87 53.34-48.23 79.58-100.63 127.76-181.13 175.04-17.32 9.84-37.91 14.05-59.89 19.2-11.72.49-23.41 1.4-35.11 1.86-7.5 3.29-15 12.19-21.54 16.4-26.69 16.84-95.46 53.34-115.13 5.14-12.64-30.44 18.72-60.38 29.49-75.83 7.95-10.75 18.26-22.94 23.85-35.09 3.28-7.96 4.22-16.4 7.51-24.81 7.48-20.59 14.49-43.53 24.34-62.73 5.13-9.83 10.74-20.14 17.29-28.99 3.78-5.18 10.31-7.49 11.72-15.94-6.53-9.35-7.04-23.39-10.78-35.1-16.84-52.89-10.3-118.414 13.58-157.254 7.47-11.699 25.28-37.449 49.15-27.597 21.06 8.41 16.38 35.089 22.46 58.476 1.4 5.656.46 9.367 3.26 13.106v-.946c6.55-13.086 13.12-25.691 19.2-38.84 14.53-22.91 39.78-46.785 60.86-62.683 11.2-8.457 20.1-22.942 34.14-28.106v1.414h-.92c-2.82 4.2-7.02 6.086-10.77 9.348-8.42 8.43-17.76 18.731-24.34 28.086-19.65 26.199-36.99 55.234-52.4 85.184-7.51 14.543-14.05 30.441-20.14 44.941-2.8 5.59-2.8 14.039-7.49 16.84-7.04-10.285-17.31-19.191-22.45-31.789-8.9-20.149-9.83-44.949-13.13-70.703-1.86-.489-.92 0-1.86-.93-14.96 3.742-20.11 19.184-25.74 32.246-14.04 33.274-16.4 86.627-4.21 125.007 3.26 9.81 17.34 40.7 11.7 50.06-2.83 8.93-12.18 14.03-17.32 21.08-6.07 8.89-12.66 20.1-16.83 29.95-11.24 26.2-16.89 55.23-29.02 81.43-5.62 12.19-15.47 24.83-23.4 36.04-8.91 12.64-18.73 21.53-25.76 36.49-2.32 5.16-5.6 13.59-1.87 19.19.92 3.75 2.82 5.16 6.57 6.1 6.05 5.15 23.39-1.39 29.46-4.2 17.33-7 31.84-13.59 46.33-23.4 6.56-4.69 13.58-13.58 21.99-15.94h9.85c14.97-3.25 31.83-.91 45.88-5.14 24.79-7.95 47.25-19.65 67.39-32.29 61.29-38.85 111.84-94.09 145.99-160.07 5.63-10.75 7.99-20.59 13.13-31.8 9.83-22.98 22.01-46.38 31.82-68.823 9.82-22 19.2-44.446 33.26-62.727 7-9.812 35.09-14.961 47.73-20.113 9.34-4.199 23.87-7.949 32.3-13.09 15.91-9.812 31.79-21.062 46.79-31.844 7.47-5.617 30.88-17.304 32.29-26.679" fill="#2c7493" fill-rule="evenodd"/><path d="m1921.54 319.359h10.27v39.411h13.44v8.05h-37.67v-8.05h13.96zm78.15 0h9.68v47.461h-14.56l-11.85-32.351-12.9 32.351h-14.03v-47.461h9.16v36.121h.52l13.51-36.121h6.98l13.49 36.121z" fill="#f18513"/></g></svg>