<svg viewBox="0 0 900 900" xmlns="http://www.w3.org/2000/svg"><path d="m504.908 750h334.568c10.627.001 21.066-2.771 30.269-8.037 9.203-5.267 16.844-12.842 22.155-21.964 5.311-9.123 8.105-19.47 8.1-30.002s-2.807-20.877-8.127-29.995l-224.686-385.713c-5.311-9.12-12.95-16.694-22.151-21.96-9.201-5.265-19.638-8.038-30.263-8.038-10.624 0-21.062 2.773-30.262 8.038-9.201 5.266-16.841 12.84-22.151 21.96l-57.452 98.69-112.327-192.986c-5.315-9.119-12.958-16.692-22.161-21.957-9.204-5.264-19.643-8.036-30.269-8.036s-21.065 2.772-30.268 8.036c-9.204 5.265-16.847 12.838-22.162 21.957l-279.59451 480.009c-5.31906 9.118-8.12186065 19.463-8.12648427 29.995s2.78908427 20.879 8.10014427 30.002c5.31105 9.122 12.95215 16.697 22.15485 21.964 9.2026 5.266 19.6423 8.038 30.269 8.037h210.014c83.21 0 144.574-36.225 186.798-106.899l102.513-175.956 54.908-94.166 164.79 282.855h-219.698zm-237.794-94.263-146.563-.033 219.698-377.118 109.621 188.559-73.396 126.03c-28.041 45.855-59.897 62.562-109.36 62.562z" fill="#00dc82"/></svg>