<svg viewBox="-.02 -.02 72.95 89.82" xmlns="http://www.w3.org/2000/svg"><g transform="translate(936.898 -21.779)"><path d="m-908.37 39.734a2.59 2.59 0 0 0 -2.556 2.185l-4.247 26.936c.198-1.258 1.282-2.185 2.556-2.185h12.445c12.525 0 23.153-9.137 25.095-21.519a20.76 20.76 0 0 0 .245-2.793c-3.183-1.669-6.922-2.624-11.019-2.624z" fill="#001c64"/><path d="m-874.832 42.359a20.76 20.76 0 0 1 -.245 2.793c-1.942 12.382-12.571 21.519-25.095 21.519h-12.445c-1.273 0-2.358.926-2.556 2.185l-3.905 24.752-2.446 15.528a2.1 2.1 0 0 0 2.075 2.43h13.508a2.59 2.59 0 0 0 2.556-2.185l3.558-22.567a2.59 2.59 0 0 1 2.558-2.185h7.953c12.525 0 23.153-9.137 25.095-21.519 1.379-8.788-3.047-16.784-10.611-20.75z" fill="#0070e0"/><path d="m-923.716 21.779c-1.273 0-2.358.926-2.556 2.183l-10.6 67.216c-.201 1.276.785 2.43 2.077 2.43h15.719l3.903-24.752 4.247-26.936a2.59 2.59 0 0 1 2.556-2.185h22.519c4.098 0 7.836.956 11.019 2.624.218-11.273-9.084-20.58-21.873-20.58z" fill="#003087"/></g></svg>