<svg viewBox="-.03 -.03 111.22 112.43" xmlns="http://www.w3.org/2000/svg" xmlns:xlink="http://www.w3.org/1999/xlink"><linearGradient id="a" gradientTransform="matrix(.562541 0 0 .567972 -14.99112 -11.702371)" gradientUnits="userSpaceOnUse" x1="150.961" x2="112.031" y1="192.352" y2="137.273"><stop offset="0" stop-color="#ffd43b"/><stop offset="1" stop-color="#ffe873"/></linearGradient><linearGradient id="b" gradientTransform="matrix(.562541 0 0 .567972 -14.99112 -11.702371)" gradientUnits="userSpaceOnUse" x1="26.649" x2="135.665" y1="20.604" y2="114.398"><stop offset="0" stop-color="#5a9fd4"/><stop offset="1" stop-color="#306998"/></linearGradient><path d="m54.918785.00091927c-4.583653.021298-8.960939.4122177-12.8125 1.09375003-11.346216 2.0045038-13.406249 6.2001021-13.40625 13.9374997v10.21875h26.8125v3.40625h-26.8125-10.0625c-7.792459 0-14.6157588 4.683717-16.7499998 13.59375-2.46181998 10.212966-2.57101508 16.586023 0 27.25 1.9059283 7.937852 6.4575432 13.593748 14.2499998 13.59375h9.21875v-12.25c0-8.849902 7.657144-16.656248 16.75-16.65625h26.78125c7.454951 0 13.406253-6.138164 13.40625-13.625v-25.53125c0-7.2663386-6.12998-12.7247771-13.40625-13.9374997-4.605987-.76672533-9.385097-1.11504833-13.96875-1.09375003zm-14.5 8.21875013c2.769547 0 5.03125 2.2986456 5.03125 5.1249996-.000002 2.816336-2.261703 5.09375-5.03125 5.09375-2.779476-.000001-5.03125-2.277415-5.03125-5.09375-.000001-2.826353 2.251774-5.1249996 5.03125-5.1249996z" fill="url(#b)"/><path d="m85.637535 28.657169v11.90625c0 9.230755-7.825895 16.999999-16.75 17h-26.78125c-7.335833 0-13.406249 6.278483-13.40625 13.625v25.531247c0 7.266344 6.318588 11.540324 13.40625 13.625004 8.487331 2.49561 16.626237 2.94663 26.78125 0 6.750155-1.95439 13.406253-5.88761 13.40625-13.625004v-10.218747h-26.78125v-3.40625h26.78125 13.406254c7.792461 0 10.696251-5.435408 13.406241-13.59375 2.79933-8.398886 2.68022-16.475776 0-27.25-1.92578-7.757441-5.60387-13.59375-13.406241-13.59375zm-15.0625 64.65625c2.779478.000003 5.03125 2.277417 5.03125 5.093747-.000002 2.826354-2.251775 5.125004-5.03125 5.125004-2.76955 0-5.03125-2.29865-5.03125-5.125004.000002-2.81633 2.261697-5.093747 5.03125-5.093747z" fill="url(#a)"/></svg>