<svg enable-background="new 0 0 300 200" viewBox="0 0 260 184" xmlns="http://www.w3.org/2000/svg"><g transform="translate(-8.71 -8.72)"><path d="m53.7 130c2.96 3.65 6.25 7.35 9.87 11.1-10.5 3.17-17.5 9.06-21.8 14.3-6.82 8.23-10.4 19.1-9.6 28.4h-18.2c3.64-7.9 18.2-30.7 39.6-53.8z" fill="#d1a41a"/><path d="m264 189h-22.1c-50.6-26.4-95.1-45-142-49.1.1-6.57 1.27-14 3.52-22.3l-4.35-1.17c-2.31 8.52-3.52 16.2-3.66 23.1-4.92-.33-9.87-.49-14.9-.49-4.23 0-8.09.391-11.6 1.07-4.59-4.58-8.5-8.96-11.8-13.1 21.8-22.7 57.6-43.2 88.9-50.9 8.79 29.2 27.7 49.2 50.6 62.7 1.68-.96 3.33-1.96 4.95-3.02l40 43 1.75-.15c10.9-.939 17.1 4.98 18.8 6.82 1.21 1.34 1.93 2.57 2.33 3.54z" fill="#d1a41a"/><path d="m244 44.8c.811 39.7-19.4 71.3-47.8 87.5-48.1-24-57.2-84.7-49-117 2.28 12.5 6.43 20.3 15.4 24.1 19.5-5.59 46.4-6.03 66.2-.57 8.25-6 11.5-15.2 13.2-23.2 2.18 9.32 1.93 29.5 1.94 29.5z" fill="#ffdc76"/><path d="m109 89.2 14-6.8 8 21.6z"/><path d="m93.3 97.1 8.7-5.2 8 14.1z"/><path d="m76.4 108 7.6-5 3.8 13z"/><path d="m211 144-5-5-7 11z"/><path d="m221 156-4-4-12 8z"/><path d="m203 33.2-14 .3 8 18.5z"/><path d="m148 68.3-2-7.9 14 7.1z"/><path d="m151 80-1-5.2 8 3.3z"/><path d="m243 71.6 2-6-11 4.6z"/><path d="m239 83.8 1-4.9-8 2.4z"/><path d="m142 99.3h26.2v3.24h-26.2z"/><path d="m142 91.5h26.2v3.24h-26.2z"/><path d="m222 99.3h26.2v3.24h-26.2z"/><path d="m222 91.5h26.2v3.24h-26.2z"/><path d="m213 72.3h-42.8v-2.92h13.3c1.64-7.02 1.96-13.7-.0137-17.1-.844-1.45-2.01-2.12-3.67-2.12-7.61 0-10.8 8.05-10.9 8.39l.002-.002-2.73-1.02c.156-.42 3.96-10.3 13.6-10.3 2.69 0 4.83 1.24 6.19 3.57 2.41 4.14 2.13 11.3.494 18.6h23.4c3.1-9.12 9.58-13.4 20.4-13.4v2.92c-11.7 0-15 4.97-17.4 10.5h12.7l-.0293 2.9z"/><path d="m215 86.7.0186-.0029c-3.46-5.1-4.55-9.46-3.11-14.4l-2.97.0146c-1.04 3.3-.62 8.27 1.93 12.5h-29.7c1.81-3.62 3.48-8.03 4.7-12.5h-3.02c-1.35 4.79-3.24 9.52-5.37 13.3l-.689 1.21 16.7 10.5-9.38 6.18 1.61 2.44 10.5-6.91 11.3 7.38 1.55-2.47-10.5-6.49s15.7-10.2 16.5-10.7c-.005-.0068-.008-.0127-.0127-.0186zm-18.9 8.81-12.3-7.75 24.1.0059z"/></g><g transform="matrix(.99 0 0 .996 -7.52 -8)"><path d="m249 41.3c-.0185-5.07-1.6-26.5-4.5-32.4-7.87 2.99-22.2 12.7-25.4 22.6-15.5-2.32-33-2.04-48.4.609-2.56-10.7-15.4-18.8-25.1-23.4-4.09 6.91-5.91 22.9-5.44 34.3-.0176.0117-.0366.0234-.0542.0361 1.8 47.7 25.2 77.4 55.8 95.4 31.5-18 54-53.1 53.1-97.1.0127.0078.0264.0137.0381.0215zm-26.2-9.2c.114.0205.229.042.344.0635-.114-.0215-.229-.043-.344-.0635zm-1.96-.338c.275.044.554.0938.83.141-.276-.0469-.553-.0947-.83-.141zm23.3 13c.81 39.7-19.4 71.3-47.8 87.5-48.1-24-57.2-84.7-49-117 2.28 12.5 6.42 20.3 15.4 24.1 19.5-5.59 46.4-6.03 66.2-.569 8.25-6 11.5-15.2 13.2-23.2 2.18 9.32 1.93 29.5 1.94 29.5z"/><path d="m265 182c-4.94-5.53-14.6-8.14-22.7-7.95-5.74-6.83-39-41.9-39-41.9l-2.31 2.9 40.2 43.2 1.74-.149c10.9-.935 17.1 4.98 18.8 6.82 1.2 1.35 1.93 2.58 2.33 3.54h-22.1c-50.6-26.4-95.1-45-142-49.1.104-6.57 1.27-14 3.52-22.3l-4.34-1.18c-2.31 8.52-3.52 16.2-3.66 23.1-4.92-.326-9.87-.495-14.9-.495-4.24 0-8.1.394-11.6 1.08-4.59-4.59-8.5-8.96-11.8-13.1 21.9-22.8 58.1-43.5 89.5-51.1l-1.02-4.4c-33.8 8.15-70.8 30.3-91.4 51.8-9.56-12.9-13.4-23.5-14.5-31.5-1.42-10.1.997-19.4 7-26.9 9.4-11.7 22.7-12.5 36.5-10.2-.268 2.17.0171 4.24.885 5.52 3.63 5.36 23.1 7.25 34.8 2.05-8.6-12-26-17.9-30.8-15.6-1.6.78-2.8 2.21-3.63 3.89-4.75-.849-9.46-1.48-12.9-1.46-12.1.0889-21.4 4.32-28.3 12.9-6.8 8.45-9.55 18.9-7.95 30.3 1.52 10.8 6.86 22.3 15.8 34.2-1.49 1.6-2.93 3.17-4.31 4.72-21.8 24.4-37.8 50.7-37.8 55v2.25h28.8l-.505-2.67c-1.63-8.6 1.62-19.4 8.28-27.4 4.18-5.04 11.1-10.8 22-13.5 9.66 9.43 22 19.4 35.7 29.1h21.4v-2.25c0-2.54-1.26-4.76-3.54-6.26-3.38-2.21-8.6-2.52-13.4-.881-4.57-5.09-7.14-11.9-7.69-20.3 46.5 4.12 90.9 22.9 141 49.1h27.6l.361-1.81c.516-2.58-.888-6.03-3.75-9.23zm-223-26.8c-6.82 8.23-10.4 19.1-9.6 28.4h-18.2c3.65-7.89 18.2-30.7 39.6-53.8 2.96 3.66 6.25 7.35 9.87 11.1-10.5 3.17-17.5 9.06-21.8 14.3z"/></g></svg>