<svg viewBox="2.6 14.2 15.33 14.75" xmlns="http://www.w3.org/2000/svg"><circle cx="4.8" cy="21.15" r="2.17"/><circle cx="13.86" cy="16.39" r="2.17"/><path d="m9.7 26.75c-1.57-.34-2.87-1.34-3.61-2.75-.58.26-1.23.34-1.86.23.89 2.19 2.78 3.77 5.1 4.27.51.11 1.03.16 1.54.16-.4-.52-.62-1.16-.64-1.82-.18-.02-.36-.05-.53-.09z"/><circle cx="13.37" cy="26.76" r="2.17"/><path d="m16.39 25.96c.68-.85 1.15-1.86 1.38-2.93.4-1.87.03-3.83-1.03-5.42-.25.59-.68 1.09-1.22 1.43.59 1.11.77 2.38.5 3.61-.13.6-.36 1.17-.68 1.68.51.42.87.98 1.04 1.62z"/><path d="m4.63 18.04h.17c.22 0 .44.02.66.07.35.08.69.21.99.4.98-1.41 2.56-2.25 4.27-2.28 0-.16.03-.33.07-.49.1-.47.3-.9.59-1.27-2.73-.22-5.39 1.19-6.74 3.58z"/></svg>